<?xml version="1.0" standalone="no"?>
<!DOCTYPE svg PUBLIC "-//W3C//DTD SVG 1.0//EN" "http://www.w3.org/TR/2001/REC-SVG-20010904/DTD/svg10.dtd">
<svg xmlns="http://www.w3.org/2000/svg" xmlns:xlink="http://www.w3.org/1999/xlink" id="body_1" width="400" height="171">

<g transform="matrix(0.33333334 0 0 0.33333334 -0 0.16666667)">
    <path d="M0 0L1200 0L1200 512L0 512z" stroke="none" fill="#FFFFFF" fill-rule="nonzero" />
    <path d="M429.98 435.161C 393.192 448.518 370.98 459.223 323.476 455.557C 286.127 452.676 253.163 439.857 227.695 422.524C 134.415 359.045 109.035 226.945 179.167 135.901C 226.665 74.2433 307.056 42.779 385.825 61.7525C 408.798 67.2864 425.306 76.5623 432.603 78.3777C 429.435 77.1889 417.003 67.5616 410.842 64.0597C 383.682 48.6116 355.819 38.9082 323.277 35.2013C 278.461 30.0949 226.706 41.8069 194.445 60.1128C 125.988 98.9615 75.8432 168.912 77.0203 252.793C 79.351 418.717 232.486 516.7 379.583 463.492C 393.748 458.368 422.156 443.394 429.98 435.161z" stroke="none" fill="#041153" fill-rule="nonzero" />
    <path d="M243.39 112.834C 270.31 102.885 291.461 94.0367 326.463 96.953C 483.738 110.065 526.047 307.939 405.701 388.207C 368.814 412.809 328.489 421.985 283.532 413.172C 267.68 410.062 258.076 404.71 244.941 400.874C 292.158 440.18 378.745 444.003 435.25 410.964C 557.84 339.292 553.565 169.269 433.118 100.25C 385.644 73.0487 311.026 70.7356 260.881 100.783C 254.469 104.624 248.373 109.965 243.39 112.834z" stroke="none" fill="#041153" fill-rule="nonzero" />
    <path d="M280.001 316.717L285.102 310.568C 286.753 307.775 288.018 305.485 289.465 302.938L289.465 302.938L350.812 195.679L370.529 195.363C 367.742 205.553 356.387 221.504 351.281 230.739C 340.588 250.093 294.39 325.788 292.557 334.801L292.557 334.801L311.272 334.847C 323.804 316.635 400.044 181.783 400.764 177.643L400.764 177.643L342.432 177.584L281.383 281.927C 274.526 272.34 233.815 203.035 231.566 195.392L231.566 195.392L251.594 195.457L281.237 246.873L291.011 230.634C 288.024 222.523 279.878 210.366 275.516 202.871C 256.577 170.323 270.69 177.573 201.601 177.631C 202.995 186.79 267.569 292.104 280.001 316.723L280.001 316.723L280.001 316.717z" stroke="none" fill="#041153" fill-rule="nonzero" />
    <path d="M585.101 185.058L608.319 258.041L609.21 258.041L632.474 185.058L654.988 185.058L621.874 281.118L595.701 281.118L562.54 185.058L585.101 185.058zM666.55 281.118L666.55 185.058L731.278 185.058L731.278 201.803L686.86 201.803L686.86 224.692L727.948 224.692L727.948 241.437L686.86 241.437L686.86 264.373L731.466 264.373L731.466 281.118L666.55 281.118zM827.772 185.058L827.772 281.118L810.23 281.118L768.438 220.658L767.734 220.658L767.734 281.118L747.425 281.118L747.425 185.058L765.248 185.058L806.712 245.471L807.556 245.471L807.556 185.058L827.772 185.058zM878.604 281.118L844.552 281.118L844.552 185.058L878.886 185.058C 888.548 185.058 896.866 186.981 903.839 190.827C 910.812 194.642 916.174 200.13 919.927 207.291C 923.71 214.451 925.602 223.019 925.602 232.994C 925.602 243 923.71 251.6 919.927 258.792C 916.174 265.983 910.78 271.503 903.745 275.349C 896.74 279.195 888.36 281.118 878.604 281.118zM864.861 263.716L877.76 263.716C 883.764 263.716 888.814 262.653 892.91 260.527C 897.038 258.369 900.133 255.039 902.197 250.536C 904.292 246.002 905.34 240.155 905.34 232.994C 905.34 225.896 904.292 220.096 902.197 215.593C 900.133 211.09 897.053 207.775 892.957 205.649C 888.861 203.523 883.811 202.46 877.807 202.46L877.807 202.46L864.861 202.46L864.861 263.716zM1028.92 233.088C 1028.92 243.563 1026.93 252.475 1022.96 259.823C 1019.02 267.172 1013.65 272.785 1006.83 276.662C 1000.04 280.508 992.413 282.431 983.939 282.431C 975.403 282.431 967.742 280.493 960.956 276.615C 954.171 272.738 948.808 267.125 944.868 259.776C 940.928 252.428 938.958 243.532 938.958 233.088C 938.958 222.613 940.928 213.701 944.868 206.353C 948.808 199.004 954.171 193.407 960.956 189.561C 967.742 185.683 975.403 183.745 983.939 183.745C 992.413 183.745 1000.04 185.683 1006.83 189.561C 1013.65 193.407 1019.02 199.004 1022.96 206.353C 1026.93 213.701 1028.92 222.613 1028.92 233.088zM1008.33 233.088C 1008.33 226.303 1007.31 220.58 1005.28 215.921C 1003.28 211.262 1000.45 207.728 996.791 205.321C 993.133 202.913 988.849 201.709 983.939 201.709C 979.03 201.709 974.746 202.913 971.088 205.321C 967.429 207.728 964.584 211.262 962.551 215.921C 960.55 220.58 959.549 226.303 959.549 233.088C 959.549 239.873 960.55 245.596 962.551 250.255C 964.584 254.914 967.429 258.448 971.088 260.855C 974.746 263.263 979.03 264.467 983.939 264.467C 988.849 264.467 993.133 263.263 996.791 260.855C 1000.45 258.448 1003.28 254.914 1005.28 250.255C 1007.31 245.596 1008.33 239.873 1008.33 233.088zM1043.96 281.118L1043.96 185.058L1081.86 185.058C 1089.12 185.058 1095.31 186.356 1100.44 188.951C 1105.6 191.515 1109.52 195.158 1112.21 199.88C 1114.93 204.57 1116.29 210.089 1116.29 216.437C 1116.29 222.816 1114.92 228.304 1112.16 232.9C 1109.41 237.466 1105.43 240.968 1100.2 243.407C 1095.01 245.846 1088.73 247.065 1081.35 247.065L1081.35 247.065L1055.97 247.065L1055.97 230.743L1078.06 230.743C 1081.94 230.743 1085.16 230.211 1087.73 229.148C 1090.29 228.085 1092.2 226.49 1093.45 224.364C 1094.73 222.237 1095.37 219.595 1095.37 216.437C 1095.37 213.248 1094.73 210.558 1093.45 208.369C 1092.2 206.181 1090.28 204.523 1087.68 203.398C 1085.12 202.241 1081.88 201.662 1077.97 201.662L1077.97 201.662L1064.27 201.662L1064.27 281.118L1043.96 281.118zM1095.84 237.403L1119.72 281.118L1097.3 281.118L1073.94 237.403L1095.84 237.403z" stroke="none" fill="#041153" fill-rule="nonzero" />
    <path d="M596.37 312.5L618.811 376.133L619.697 376.133L642.138 312.5L651.735 312.5L623.978 388.092L614.529 388.092L586.773 312.5L596.37 312.5zM672.663 312.5L672.663 388.092L663.509 388.092L663.509 312.5L672.663 312.5zM691.016 388.092L691.016 312.5L700.17 312.5L700.17 379.971L735.308 379.971L735.308 388.092L691.016 388.092zM749.481 388.092L749.481 312.5L758.635 312.5L758.635 379.971L793.773 379.971L793.773 388.092L749.481 388.092zM815.818 388.092L806.221 388.092L833.977 312.5L843.426 312.5L871.183 388.092L861.586 388.092L838.997 324.459L838.407 324.459L815.818 388.092zM819.361 358.564L858.043 358.564L858.043 366.684L819.361 366.684L819.361 358.564zM931.078 336.123C 930.266 333.637 929.196 331.41 927.867 329.442C 926.563 327.449 925 325.751 923.179 324.348C 921.383 322.946 919.341 321.875 917.052 321.137C 914.764 320.399 912.254 320.03 909.523 320.03C 905.044 320.03 900.972 321.186 897.306 323.499C 893.639 325.812 890.723 329.22 888.558 333.723C 886.393 338.226 885.31 343.751 885.31 350.296C 885.31 356.841 886.405 362.365 888.595 366.868C 890.785 371.371 893.75 374.78 897.49 377.093C 901.23 379.406 905.438 380.562 910.113 380.562C 914.444 380.562 918.258 379.639 921.555 377.794C 924.877 375.924 927.461 373.291 929.306 369.895C 931.177 366.475 932.112 362.452 932.112 357.826L932.112 357.826L934.917 358.416L912.18 358.416L912.18 350.296L940.97 350.296L940.97 358.416C 940.97 364.642 939.641 370.055 936.984 374.656C 934.351 379.258 930.709 382.826 926.058 385.36C 921.432 387.87 916.117 389.125 910.113 389.125C 903.42 389.125 897.539 387.55 892.47 384.401C 887.426 381.251 883.489 376.773 880.659 370.965C 877.854 365.158 876.451 358.268 876.451 350.296C 876.451 344.317 877.251 338.94 878.851 334.166C 880.475 329.368 882.763 325.283 885.716 321.912C 888.669 318.541 892.163 315.957 896.198 314.161C 900.234 312.365 904.675 311.467 909.523 311.467C 913.509 311.467 917.225 312.07 920.67 313.275C 924.139 314.456 927.227 316.142 929.934 318.332C 932.665 320.497 934.941 323.093 936.762 326.12C 938.583 329.122 939.838 332.456 940.527 336.123L940.527 336.123L931.078 336.123zM956.647 388.092L956.647 312.5L1002.27 312.5L1002.27 320.62L965.801 320.62L965.801 346.162L999.906 346.162L999.906 354.282L965.801 354.282L965.801 379.971L1002.86 379.971L1002.86 388.092L956.647 388.092z" stroke="none" fill="#041153" fill-rule="nonzero" />
</g>
</svg>